<?xml version="1.0" encoding="utf-8"?>
<svg xmlns="http://www.w3.org/2000/svg" viewBox="0 0 16 16" width="128" height="128">
  <path d="M2.5 2C1.6774686 2 1 2.6774686 1 3.5L1 4.5L1 5.5L1 6.5L1 12.5C1 13.322531 1.6774686 14 2.5 14L13.5 14C14.322531 14 15 13.322531 15 12.5L15 5.5C15 4.6774686 14.322531 4 13.5 4L6.7988281 4L6.1445312 2.7871094C5.8835911 2.3027204 5.3751898 2 4.8242188 2L2.5 2 z M 2.5 3L4.8242188 3C5.0092476 3 5.176612 3.1001077 5.2636719 3.2617188L6.2011719 5L13.5 5C13.781469 5 14 5.2185314 14 5.5L14 6L4.5 6C3.673 6 3 6.673 3 7.5L3 10.416016L2.1796875 12.878906C2.071471 12.788064 2 12.656372 2 12.5L2 6.5L2 5.5L2 4.5L2 3.5C2 3.2185314 2.2185314 3 2.5 3 z M 5.2207031 8L14 8L14 12.5C14 12.781469 13.781469 13 13.5 13L3.1933594 13L4.7460938 8.3417969C4.8145822 8.1358275 5.0038814 8 5.2207031 8 z" fill="#868686" />
</svg>