<?xml version="1.0" encoding="utf-8"?>
<svg xmlns="http://www.w3.org/2000/svg" viewBox="0 0 16 16" width="128" height="128">
  <path d="M4.5 2 A 0.50005 0.50005 0 0 0 4 2.5L4 4L2.5 4 A 0.50005 0.50005 0 0 0 2 4.5L2 13.5 A 0.50005 0.50005 0 0 0 2.5 14L11.5 14 A 0.50005 0.50005 0 0 0 12 13.5L12 12L13.5 12 A 0.50005 0.50005 0 0 0 14 11.5L14 2.5 A 0.50005 0.50005 0 0 0 13.5 2L4.5 2 z M 5 3L13 3L13 11L12 11L12 4.5 A 0.50005 0.50005 0 0 0 11.5 4L5 4L5 3 z M 3 5L11 5L11 13L3 13L3 5 z" fill="#868686" />
</svg>